<svg xmlns="http://www.w3.org/2000/svg" width="1109" height="281">
  <g fill="none" fill-rule="evenodd">
    <path fill="#7ED321" d="M396.39 152.313c0 18.018-4.418 31.714-13.256 41.09-8.838 9.374-21.777 14.062-38.82 14.062-16.796 0-29.674-4.712-38.634-14.136-8.96-9.43-13.44-23.15-13.44-41.17 0-17.82 4.456-31.44 13.367-40.84 8.91-9.4 21.863-14.1 38.855-14.1 17.04 0 29.956 4.66 38.745 13.99 8.79 9.32 13.184 23.02 13.184 41.09zm-73.68 0c0 20.704 7.2 31.055 21.605 31.055 7.325 0 12.757-2.514 16.297-7.544 3.54-5.03 5.31-12.866 5.31-23.51 0-10.694-1.795-18.592-5.383-23.694-3.59-5.103-8.95-7.654-16.08-7.654-14.5 0-21.76 10.45-21.76 31.347z"/>
    <path fill="#AD73E0" d="M444.657 167.035V206h-28.93V98.92h35.083c29.1 0 43.652 10.547 43.652 31.64 0 12.403-6.055 21.998-18.164 28.785l31.2 46.655h-32.81l-22.707-38.965h-7.32zm0-21.753h5.42c10.108 0 15.16-4.468 15.16-13.403 0-7.38-4.955-11.06-14.867-11.06h-5.713v24.46z"/>
    <path fill="#4A90E2" d="M555.473 138.617L573.93 98.92h31.347l-35.23 65.26V206h-29.15v-40.942l-35.23-66.138h31.495"/>
    <path fill="#F6A623" d="M254.813 206h-28.93v-83.423h-26.148V98.92h81.153v23.657h-26.075"/>
    <path fill="#F26161" d="M864.768 152.313c0 18.018-4.42 31.714-13.257 41.09-8.83 9.374-21.77 14.062-38.81 14.062-16.79 0-29.67-4.712-38.63-14.136-8.96-9.43-13.44-23.15-13.44-41.17 0-17.82 4.46-31.44 13.37-40.84 8.91-9.4 21.87-14.1 38.86-14.1 17.04 0 29.96 4.66 38.75 13.99 8.79 9.32 13.186 23.02 13.186 41.09zm-73.682 0c0 20.704 7.202 31.055 21.606 31.055 7.325 0 12.757-2.514 16.297-7.544 3.54-5.03 5.31-12.866 5.31-23.51 0-10.694-1.8-18.592-5.39-23.694-3.59-5.103-8.95-7.654-16.08-7.654-14.51 0-21.76 10.45-21.76 31.347z"/>
    <path fill="#36D072" d="M984.3 152.313c0 18.018-4.42 31.714-13.258 41.09-8.838 9.374-21.777 14.062-38.818 14.062-16.797 0-29.676-4.712-38.636-14.136-8.96-9.43-13.44-23.15-13.44-41.17 0-17.82 4.456-31.44 13.367-40.84 8.91-9.4 21.863-14.1 38.855-14.1 17.04 0 29.956 4.66 38.745 13.99 8.79 9.32 13.184 23.02 13.184 41.09zm-73.683 0c0 20.704 7.202 31.055 21.607 31.055 7.324 0 12.756-2.514 16.296-7.544 3.54-5.03 5.31-12.866 5.31-23.51 0-10.694-1.794-18.592-5.383-23.694-3.59-5.103-8.948-7.654-16.077-7.654-14.502 0-21.753 10.45-21.753 31.347z"/>
    <path fill="#EB5C8F" d="M1095.114 206h-32.666l-21.167-40.942-8.56 5.127V206h-29.07V98.92h29.08v46.51c1.47-2.882 4.42-7.448 8.86-13.698l22.49-32.812h31.64l-33.76 47.974L1095.12 206z"/>
    <path fill="#ED5A87" d="M18.8 31H188v226H18.8z"/>
    <path fill="#894D95" d="M0 31h13v226H0z"/>
    <path fill="#FFF" d="M165 34h15v36.34h-15z"/>
    <path fill="#ED5B87" d="M172.5 58.446L180 71h-15"/>
    <path fill="#FFF" d="M153.79 170.64c0 8.855-2.247 16.716-6.74 23.585-4.49 6.868-10.97 12.207-19.433 16.015-8.463 3.81-18.392 5.713-29.785 5.713-9.505 0-17.48-.667-23.926-2.002-6.445-1.33-13.15-3.66-20.117-6.98V172.6c7.35 3.776 15 6.722 22.94 8.838 7.94 2.116 15.23 3.173 21.87 3.173 5.73 0 9.93-.99 12.6-2.98 2.67-1.98 4-4.54 4-7.66 0-1.95-.54-3.66-1.61-5.12-1.08-1.46-2.8-2.94-5.18-4.44-2.38-1.49-8.71-4.55-19-9.18-9.31-4.23-16.295-8.33-20.95-12.3-4.655-3.97-8.105-8.53-10.35-13.67-2.247-5.14-3.37-11.23-3.37-18.26 0-13.15 4.785-23.403 14.355-30.76 9.576-7.36 22.726-11.04 39.46-11.04 14.78 0 29.85 3.42 45.214 10.256l-11.813 29.78c-13.348-6.12-24.87-9.18-34.57-9.18-5.015 0-8.66.88-10.94 2.636-2.28 1.76-3.417 3.94-3.417 6.544 0 2.8 1.45 5.303 4.347 7.52 2.896 2.21 10.757 6.25 23.583 12.11 12.303 5.53 20.85 11.47 25.633 17.82 4.79 6.35 7.18 14.34 7.18 23.973z"/>
    <path fill="#A265AE" d="M633.43 79.227h49.804c19.402 0 33.806 2.88 43.213 8.642 9.408 5.76 14.112 14.73 14.112 26.9 0 8.01-2.06 14.84-6.16 20.51-4.1 5.66-9.51 9.31-16.21 10.94v.97c8.85 2.34 15.26 6.25 19.24 11.72 3.97 5.47 5.95 12.56 5.95 21.29 0 12.95-4.87 23.16-14.6 30.61-9.73 7.45-23 11.18-39.8 11.18h-55.56V79.22zm38.574 54.785h11.62c5.535 0 9.815-1.14 12.843-3.418 3.027-2.28 4.54-5.664 4.54-10.156 0-8.008-6.054-12.012-18.163-12.012h-10.84v25.586zm0 28.222v29.98h13.574c12.044 0 18.067-5.077 18.067-15.234 0-4.752-1.612-8.398-4.834-10.937-3.22-2.54-7.89-3.81-14.01-3.81h-12.79z"/>
  </g>
</svg>