<?xml version="1.0" encoding="UTF-8"?>
<svg width="100px" height="20px" viewBox="0 0 100 20" version="1.1" xmlns="http://www.w3.org/2000/svg" xmlns:xlink="http://www.w3.org/1999/xlink">
    <!-- Generator: Sketch 52.5 (67469) - http://www.bohemiancoding.com/sketch -->
    <title>storybook-logo/default</title>
    <desc>Created with Sketch.</desc>
    <defs>
        <path d="M0.620279251,18.4293378 L0.000720094879,1.92089246 C-0.0197415137,1.37568327 0.398305374,0.913624829 0.942835893,0.879591672 L14.984425,0.00199234997 C15.5386921,-0.0326493419 16.016097,0.388590257 16.0507387,0.942857327 C16.0520438,0.963739972 16.0526969,0.984658267 16.0526969,1.00558166 L16.0526969,18.9944525 C16.0526969,19.549801 15.6024979,20 15.0471494,20 C15.0321047,20 15.017062,19.9996624 15.0020325,19.9989873 L1.58000252,19.3961612 C1.05726753,19.3726835 0.639903368,18.9522316 0.620279251,18.4293378 Z" id="path-1"></path>
    </defs>
    <g id="storybook-logo/default" stroke="none" stroke-width="1" fill="none" fill-rule="evenodd">
        <path d="M26.64,15.8315 C25.7866624,15.8315 24.9653373,15.7168345 24.176,15.4875 C23.3866627,15.2581655 22.7306693,14.9408354 22.208,14.5355 L23.008,12.7595 C24.0960054,13.5168371 25.3173266,13.8955 26.672,13.8955 C27.3760035,13.8955 27.9173314,13.7808345 28.296,13.5515 C28.6746686,13.3221655 28.864,13.0048354 28.864,12.5995 C28.864,12.2368315 28.6906684,11.9541677 28.344,11.7515 C27.9973316,11.5488323 27.3813378,11.351501 26.496,11.1595 C25.503995,10.9568323 24.712003,10.7115014 24.12,10.4235 C23.527997,10.1354986 23.0960014,9.78083544 22.824,9.3595 C22.5519986,8.93816456 22.416,8.41816976 22.416,7.7995 C22.416,7.11682992 22.6053314,6.508836 22.984,5.9755 C23.3626686,5.442164 23.8933299,5.02350152 24.576,4.7195 C25.2586701,4.41549848 26.0479955,4.2635 26.944,4.2635 C27.744004,4.2635 28.514663,4.38083216 29.256,4.6155 C29.997337,4.85016784 30.5866645,5.16483136 31.024,5.5595 L30.224,7.3355 C29.1893282,6.57816288 28.101339,6.1995 26.96,6.1995 C26.3093301,6.1995 25.7973352,6.32483208 25.424,6.5755 C25.0506648,6.82616792 24.864,7.17016448 24.864,7.6075 C24.864,7.86350128 24.9359993,8.07416584 25.08,8.2395 C25.2240007,8.40483416 25.4639983,8.55149936 25.8,8.6795 C26.1360017,8.80750064 26.6133302,8.94083264 27.232,9.0795 C28.6826739,9.3995016 29.7253302,9.81016416 30.36,10.3115 C30.9946698,10.8128358 31.312,11.5061622 31.312,12.3915 C31.312,13.458172 30.9013374,14.2981636 30.08,14.9115 C29.2586626,15.5248364 28.1120074,15.8315 26.64,15.8315 Z M37.104,14.0395 C37.3493346,14.0395 37.605332,14.0235002 37.872,13.9915 L37.744,15.7515 C37.4346651,15.7941669 37.1253349,15.8155 36.816,15.8155 C35.6213274,15.8155 34.7493361,15.5541693 34.2,15.0315 C33.6506639,14.5088307 33.376,13.714172 33.376,12.6475 L33.376,9.6395 L31.888,9.6395 L31.888,7.8315 L33.376,7.8315 L33.376,5.5275 L35.792,5.5275 L35.792,7.8315 L37.76,7.8315 L37.76,9.6395 L35.792,9.6395 L35.792,12.6315 C35.792,13.5701714 36.229329,14.0395 37.104,14.0395 Z M42.72,15.8155 C41.8879958,15.8155 41.1573365,15.6475017 40.528,15.3115 C39.8986635,14.9754983 39.413335,14.5008364 39.072,13.8875 C38.730665,13.2741636 38.56,12.5515042 38.56,11.7195 C38.56,10.8874958 38.730665,10.1648364 39.072,9.5515 C39.413335,8.9381636 39.8986635,8.46616832 40.528,8.1355 C41.1573365,7.80483168 41.8879958,7.6395 42.72,7.6395 C43.5520042,7.6395 44.2826635,7.80483168 44.912,8.1355 C45.5413365,8.46616832 46.026665,8.9381636 46.368,9.5515 C46.709335,10.1648364 46.88,10.8874958 46.88,11.7195 C46.88,12.5515042 46.709335,13.2741636 46.368,13.8875 C46.026665,14.5008364 45.5413365,14.9754983 44.912,15.3115 C44.2826635,15.6475017 43.5520042,15.8155 42.72,15.8155 Z M42.72,13.9755 C43.8933392,13.9755 44.48,13.2235075 44.48,11.7195 C44.48,10.9621629 44.3280015,10.3968352 44.024,10.0235 C43.7199985,9.6501648 43.2853362,9.4635 42.72,9.4635 C41.5466608,9.4635 40.96,10.2154925 40.96,11.7195 C40.96,13.2235075 41.5466608,13.9755 42.72,13.9755 Z M53.568,9.6235 L52.208,9.7675 C51.5359966,9.83150032 51.0613347,10.0208318 50.784,10.3355 C50.5066653,10.6501682 50.368,11.0688307 50.368,11.5915 L50.368,15.6875 L47.952,15.6875 L47.952,7.8315 L50.272,7.8315 L50.272,9.1595 C50.6666686,8.2528288 51.4826605,7.75683376 52.72,7.6715 L53.424,7.6235 L53.568,9.6235 Z M60.588,7.8475 L62.956,7.8475 L58.22,18.5675 L55.772,18.5675 L57.276,15.2555 L54.044,7.8475 L56.556,7.8475 L58.54,12.8395 L60.588,7.8475 Z M68.556,7.6395 C69.2386701,7.6395 69.8413307,7.80483168 70.364,8.1355 C70.8866693,8.46616832 71.2946652,8.9381636 71.588,9.5515 C71.8813348,10.1648364 72.028,10.8768293 72.028,11.6875 C72.028,12.4981707 71.8813348,13.2154969 71.588,13.8395 C71.2946652,14.4635031 70.8840026,14.9488316 70.356,15.2955 C69.8279974,15.6421684 69.2280034,15.8155 68.556,15.8155 C68.0119973,15.8155 67.5213355,15.7008345 67.084,15.4715 C66.6466645,15.2421655 66.3106678,14.9248354 66.076,14.5195 L66.076,15.6875 L63.692,15.6875 L63.692,4.4075 L66.108,4.4075 L66.108,8.8875 C66.3426678,8.49283136 66.6759978,8.18616776 67.108,7.9675 C67.5400022,7.74883224 68.022664,7.6395 68.556,7.6395 Z M67.852,13.9755 C68.4173362,13.9755 68.8546651,13.775502 69.164,13.3755 C69.4733349,12.975498 69.628,12.412837 69.628,11.6875 C69.628,10.9728298 69.4733349,10.4261686 69.164,10.0475 C68.8546651,9.66883144 68.4173362,9.4795 67.852,9.4795 C67.2866638,9.4795 66.8493349,9.67416472 66.54,10.0635 C66.2306651,10.4528353 66.076,11.0048298 66.076,11.7195 C66.076,12.444837 66.2306651,13.0021647 66.54,13.3915 C66.8493349,13.7808353 67.2866638,13.9755 67.852,13.9755 Z M77.276,15.8155 C76.4439958,15.8155 75.7133365,15.6475017 75.084,15.3115 C74.4546635,14.9754983 73.969335,14.5008364 73.628,13.8875 C73.286665,13.2741636 73.116,12.5515042 73.116,11.7195 C73.116,10.8874958 73.286665,10.1648364 73.628,9.5515 C73.969335,8.9381636 74.4546635,8.46616832 75.084,8.1355 C75.7133365,7.80483168 76.4439958,7.6395 77.276,7.6395 C78.1080042,7.6395 78.8386635,7.80483168 79.468,8.1355 C80.0973365,8.46616832 80.582665,8.9381636 80.924,9.5515 C81.265335,10.1648364 81.436,10.8874958 81.436,11.7195 C81.436,12.5515042 81.265335,13.2741636 80.924,13.8875 C80.582665,14.5008364 80.0973365,14.9754983 79.468,15.3115 C78.8386635,15.6475017 78.1080042,15.8155 77.276,15.8155 Z M77.276,13.9755 C78.4493392,13.9755 79.036,13.2235075 79.036,11.7195 C79.036,10.9621629 78.8840015,10.3968352 78.58,10.0235 C78.2759985,9.6501648 77.8413362,9.4635 77.276,9.4635 C76.1026608,9.4635 75.516,10.2154925 75.516,11.7195 C75.516,13.2235075 76.1026608,13.9755 77.276,13.9755 Z M86.284,15.8155 C85.4519958,15.8155 84.7213365,15.6475017 84.092,15.3115 C83.4626635,14.9754983 82.977335,14.5008364 82.636,13.8875 C82.294665,13.2741636 82.124,12.5515042 82.124,11.7195 C82.124,10.8874958 82.294665,10.1648364 82.636,9.5515 C82.977335,8.9381636 83.4626635,8.46616832 84.092,8.1355 C84.7213365,7.80483168 85.4519958,7.6395 86.284,7.6395 C87.1160042,7.6395 87.8466635,7.80483168 88.476,8.1355 C89.1053365,8.46616832 89.590665,8.9381636 89.932,9.5515 C90.273335,10.1648364 90.444,10.8874958 90.444,11.7195 C90.444,12.5515042 90.273335,13.2741636 89.932,13.8875 C89.590665,14.5008364 89.1053365,14.9754983 88.476,15.3115 C87.8466635,15.6475017 87.1160042,15.8155 86.284,15.8155 Z M86.284,13.9755 C87.4573392,13.9755 88.044,13.2235075 88.044,11.7195 C88.044,10.9621629 87.8920015,10.3968352 87.588,10.0235 C87.2839985,9.6501648 86.8493362,9.4635 86.284,9.4635 C85.1106608,9.4635 84.524,10.2154925 84.524,11.7195 C84.524,13.2235075 85.1106608,13.9755 86.284,13.9755 Z M100,15.6875 L97.04,15.6875 L94.032,12.1835 L94.032,15.6875 L91.616,15.6875 L91.616,4.4075 L94.032,4.4075 L94.032,11.1915 L96.928,7.8475 L99.808,7.8475 L96.512,11.5915 L100,15.6875 Z" id="title" fill="#333333"></path>
        <g id="storybook-icon/default">
            <mask id="mask-2" fill="white">
                <use xlink:href="#path-1"></use>
            </mask>
            <use id="path1_fill-path" fill="#FF4785" fill-rule="nonzero" xlink:href="#path-1"></use>
            <path d="M11.8537041,2.4583186 L11.9496157,0.15151183 L13.8779482,0 L13.9610222,2.37893005 C13.9639134,2.46172229 13.8991408,2.53118243 13.8163485,2.53407359 C13.780898,2.53531156 13.7461558,2.52394606 13.7182911,2.50199528 L12.9746642,1.91619251 L12.094228,2.584057 C12.0282261,2.63412351 11.934134,2.62120528 11.8840675,2.55520331 C11.862992,2.52741977 11.8522554,2.49316117 11.8537041,2.4583186 Z" id="path2_fill-path" fill="#FFFFFF" fill-rule="nonzero" mask="url(#mask-2)"></path>
            <path d="M9.38755179,7.53827354 C9.38755179,7.92949033 12.0227349,7.74199033 12.376485,7.4671875 C12.376485,4.80309448 10.9469952,3.40315552 8.32935804,3.40315552 C5.71172085,3.40315552 4.24510144,4.82487559 4.24510144,6.95745682 C4.24510144,10.6717025 9.25759817,10.7427885 9.25759817,12.7687407 C9.25759817,13.337429 8.97912613,13.6750877 8.36648764,13.6750877 C7.56820113,13.6750877 7.25259948,13.2673973 7.28972909,11.8812195 C7.28972909,11.5805064 4.24510144,11.4867564 4.15227743,11.8812195 C3.91590969,15.2404217 6.0087577,16.2093445 8.40361725,16.2093445 C10.7242176,16.2093445 12.5435683,14.9724079 12.5435683,12.7331976 C12.5435683,8.75237935 7.45681231,8.85900841 7.45681231,6.88637078 C7.45681231,6.08665282 8.050886,5.98002376 8.40361725,5.98002376 C8.7749133,5.98002376 9.4432462,6.04546668 9.38755179,7.53827354 Z" id="path9_fill-path" fill="#FFFFFF" fill-rule="nonzero" mask="url(#mask-2)"></path>
        </g>
    </g>
</svg>