<svg xmlns="http://www.w3.org/2000/svg" width="222" height="222">
  <g fill="none" fill-rule="evenodd">
    <path fill="#ED5A87" d="M18.8 0H222v226H18.8z"/>
    <path fill="#894D95" d="M0 0h13v226H0z"/>
    <path fill="#FFF" d="M189 3h15v36.34h-15z"/>
    <path fill="#ED5B87" d="M196.5 27.446L204 40h-15"/>
    <path fill="#FFF" d="M168.79 139.64c0 8.855-2.247 16.716-6.74 23.585-4.49 6.868-10.97 12.207-19.433 16.015-8.463 3.81-18.392 5.713-29.785 5.713-9.505 0-17.48-.667-23.926-2.002-6.445-1.33-13.15-3.66-20.117-6.98v-34.373c7.353 3.776 15.003 6.722 22.945 8.838 7.943 2.116 15.235 3.173 21.875 3.173 5.73 0 9.93-.992 12.6-2.978 2.67-1.987 4.004-4.54 4.004-7.667 0-1.952-.537-3.66-1.61-5.126-1.076-1.465-2.8-2.946-5.177-4.443-2.377-1.497-8.708-4.557-18.994-9.18-9.31-4.23-16.293-8.332-20.948-12.304-4.655-3.97-8.105-8.53-10.35-13.673-2.247-5.143-3.37-11.23-3.37-18.26 0-13.152 4.785-23.406 14.355-30.763 9.57-7.356 22.723-11.034 39.455-11.034 14.78 0 29.85 3.418 45.215 10.254L156.973 78.22c-13.347-6.12-24.87-9.18-34.57-9.18-5.014 0-8.66.88-10.938 2.636-2.28 1.758-3.418 3.94-3.418 6.543 0 2.8 1.448 5.303 4.346 7.52 2.897 2.21 10.758 6.25 23.584 12.11 12.304 5.53 20.85 11.47 25.634 17.82 4.79 6.35 7.18 14.34 7.18 23.973z"/>
  </g>
</svg>