<svg xmlns="http://www.w3.org/2000/svg" xmlns:xlink="http://www.w3.org/1999/xlink" width="52" height="64" version="1.1" viewBox="0 0 52 64"><title>icon-storybook-inverse</title><g id="icon-storybook-inverse" fill="none" fill-rule="evenodd" stroke="none" stroke-width="1"><path id="icon" fill="#FFF" fill-rule="nonzero" d="M51.2729096,3.92285771 C51.2769973,3.98759391 51.2790429,4.05244063 51.2790429,4.11730315 L51.2790429,59.8828028 C51.2790429,61.6043831 49.8689636,63 48.1295431,63 C48.0824212,63 48.0353056,62.9989534 47.9882313,62.9968606 L5.94876437,61.1280997 C4.31149338,61.0553189 3.00425692,59.751918 2.94279175,58.1309472 L1.00225543,6.95476663 C0.938167124,5.26461814 2.24754196,3.83223697 3.95307926,3.72673418 L38.427,1.594 L38.1272753,8.62078766 C38.1238721,8.70179664 38.1419373,8.78178731 38.179031,8.85305525 L38.2223772,8.92113026 C38.3791917,9.12573637 38.6738999,9.16578288 38.880626,9.0105767 L38.880626,9.0105767 L41.6382617,6.94019678 L43.9673936,8.75618537 C44.0546693,8.82423279 44.1634862,8.85946584 44.2745216,8.85562813 C44.5338374,8.84666553 44.7367132,8.6313391 44.7276576,8.37468316 L44.7276576,8.37468316 L44.467,1.22 L47.9330824,1.00617628 C49.6691159,0.89878704 51.1644074,2.2046298 51.2729096,3.92285771 Z M27.0885852,11.5497821 C18.88982,11.5497821 14.2961856,15.9571143 14.2961856,22.5681161 C14.2961856,34.0822778 29.9959487,34.3026444 29.9959487,40.5830962 C29.9959487,42.3460299 29.1237396,43.3927719 27.2048797,43.3927719 C24.7045471,43.3927719 23.7160434,42.1289316 23.832338,37.8317805 C23.832338,36.8995698 14.2961856,36.6089448 14.0054493,37.8317805 C13.2651161,48.2453073 19.8201763,51.248968 27.3211742,51.248968 C34.5895831,51.248968 40.2880157,47.4144645 40.2880157,40.4729126 C40.2880157,28.132376 24.3556634,28.4629261 24.3556634,22.3477494 C24.3556634,19.8686237 26.2163761,19.5380737 27.3211742,19.5380737 C28.4841196,19.5380737 30.5774214,19.7409467 30.4029796,24.368648 C30.4029796,25.58142 38.6567008,25.00017 39.7646901,24.1482813 C39.7646901,15.8895929 35.2873503,11.5497821 27.0885852,11.5497821 Z"/></g></svg>