<svg xmlns="http://www.w3.org/2000/svg" xmlns:xlink="http://www.w3.org/1999/xlink" width="64" height="64" version="1.1" viewBox="0 0 64 64"><title>icon-storybook-square</title><defs><path id="path-1" d="M1.94649955,57.1309472 L0.00225973116,5.95476663 C-0.0619508833,4.26461814 1.24992288,2.83223697 2.95871519,2.72673418 L47.0226538,0.00617628491 C48.7620005,-0.10121296 50.2601458,1.2046298 50.368855,2.92285771 C50.3729505,2.98759391 50.375,3.05244063 50.375,3.11730315 L50.375,58.8828028 C50.375,60.6043831 48.9622296,62 47.2194894,62 C47.1722776,62 47.1250721,61.9989534 47.077908,61.9968606 L4.95820904,60.1280997 C3.31781333,60.0553189 2.00808203,58.751918 1.94649955,57.1309472 Z"/></defs><g id="icon-storybook-square" fill="none" fill-rule="evenodd" stroke="none" stroke-width="1"><g id="icon" transform="translate(7.000000, 1.000000)"><path id="Combined-Shape" fill="#FF4785" fill-rule="nonzero" d="M50.368855,2.92285771 C50.3729505,2.98759391 50.375,3.05244063 50.375,3.11730315 L50.375,58.8828028 C50.375,60.6043831 48.9622296,62 47.2194894,62 C47.1722776,62 47.1250721,61.9989534 47.077908,61.9968606 L4.95820904,60.1280997 C3.31781333,60.0553189 2.00808203,58.751918 1.94649955,57.1309472 L0.00225973116,5.95476663 C-0.0619508833,4.26461814 1.24992288,2.83223697 2.95871519,2.72673418 L37.499,0.594 L37.1981324,7.62078766 C37.1947227,7.70179664 37.2128224,7.78178731 37.2499869,7.85305525 L37.2934158,7.92113026 C37.4505296,8.12573637 37.7458002,8.16578288 37.9529209,8.0105767 L37.9529209,8.0105767 L40.7158195,5.94019678 L43.0493965,7.75618537 C43.1368388,7.82423279 43.2458634,7.85946584 43.3571106,7.85562813 C43.6169213,7.84666553 43.8201844,7.6313391 43.8111115,7.37468316 L43.8111115,7.37468316 L43.55,0.22 L47.0226538,0.00617628491 C48.7620005,-0.10121296 50.2601458,1.2046298 50.368855,2.92285771 Z"/><mask id="mask-2" fill="#fff"><use xlink:href="#path-1"/></mask><path id="S" fill="#FFF" fill-rule="nonzero" d="M28.9338374,23.4814331 C28.9338374,24.6948028 37.1300511,24.1132664 38.2303206,23.2609578 C38.2303206,14.9981995 33.7841764,10.65625 25.6425359,10.65625 C17.5008952,10.65625 12.9392668,15.0657542 12.9392668,21.680014 C12.9392668,33.1998499 28.5296424,33.4203251 28.5296424,39.703872 C28.5296424,41.4676745 27.6635105,42.5149323 25.7580201,42.5149323 C23.2751084,42.5149323 22.2934922,41.2504692 22.4089765,36.9512004 C22.4089765,36.0185304 12.9392668,35.7277621 12.6505561,36.9512004 C11.9153812,47.3698591 18.4247693,50.375 25.8735044,50.375 C33.0912709,50.375 38.75,46.5386069 38.75,39.5936341 C38.75,27.2470159 22.9286556,27.5777289 22.9286556,21.4595387 C22.9286556,18.9791912 24.7764039,18.6484783 25.8735044,18.6484783 C27.028347,18.6484783 29.1070638,18.8514513 28.9338374,23.4814331 Z" mask="url(#mask-2)"/><path id="bookmark" fill="#FFF" fill-rule="nonzero" d="M36.8129169,7.27406106 L37.1215233,0.366814974 L43.3261503,0 L43.5934503,7.03222653 C43.6027531,7.28442943 43.3943399,7.49601991 43.1279464,7.504827 C43.0138804,7.50859812 42.9020935,7.47397637 42.8124356,7.40710959 L40.4197323,5.62262881 L37.5868296,7.65708718 C37.3744611,7.8096005 37.0717092,7.7702488 36.9106146,7.56919266 C36.8428018,7.48455804 36.8082555,7.380199 36.8129169,7.27406106 Z" mask="url(#mask-2)"/></g></g></svg>