<svg width="600" height="600" viewBox="0 0 600 600" version="1.1" xmlns="http://www.w3.org/2000/svg" xmlns:xlink="http://www.w3.org/1999/xlink">
<title>icon</title>
<desc>Created using Figma</desc>
<g id="Canvas" transform="matrix(2 0 0 2 -3358 -454)">
<clipPath id="clip-0" clip-rule="evenodd">
<path d="M 1679 227L 1979 227L 1979 527L 1679 527L 1679 227Z" fill="#FFFFFF"/>
</clipPath>
<g id="icon" clip-path="url(#clip-0)">
<g id="Group">
<g id="Vector">
<use xlink:href="#path0_fill" transform="translate(1717 247.943)" fill="#B57EE5"/>
</g>
<g id="Vector">
<use xlink:href="#path1_fill" transform="translate(1731.47 233)" fill="#F1618C"/>
</g>
<g id="Vector 2">
<use xlink:href="#path2_fill" transform="translate(1882.33 234.067)" fill="#FFFFFF"/>
</g>
<g id="S">
<use xlink:href="#path3_fill" transform="translate(1772.8 274.628)" fill="#FFFFFF"/>
</g>
</g>
</g>
</g>
<defs>
<path id="path0_fill" d="M 21.7 262.574L 9.3 0L 0 0L 9.3 262.574L 21.7 262.574Z"/>
<path id="path1_fill" d="M 12.4 277.518L 0 14.9433L 202.533 0L 202.533 287.124L 12.4 277.518Z"/>
<path id="path2_fill" d="M 0 38.4255L 2.06667 1.60106L 26.8667 0L 26.8667 38.4255L 14.6545 27.0143L 0 38.4255Z"/>
<path id="path3_fill" d="M 78.1721 68.8513L 118.641 67.8458C 119.646 28.6341 99.2861 9.2796 63.8447 9.2796C 28.4034 9.2796 8.54615 29.3882 8.54615 59.551C 8.54615 112.085 76.4126 113.09 76.4126 141.745C 76.4126 149.788 72.6422 154.564 64.3474 154.564C 53.5391 154.564 49.266 147.526 49.7687 127.92L 7.28936 127.92C 4.02172 176.432 32.4251 187.492 64.8502 187.492C 96.2698 187.492 120.903 172.913 120.903 141.242C 120.903 84.9381 52.0309 86.4463 52.0309 58.5456C 52.0309 47.2345 60.0744 45.7264 64.8502 45.7264C 69.8773 45.7264 78.9262 47.7372 78.1721 68.8513Z"/>
</defs>
</svg>
